<svg width="100" height="100" viewBox="0 0 100 100" xmlns="http://www.w3.org/2000/svg">
  <g transform="translate(50 50) scale(0.8) translate(-50 -50)">
    <path d="M50 50
             m-30 0
             a30 30 0 1 1 60 0
             a20 20 0 1 0 -40 0
             a10 10 0 1 1 20 0"
          fill="none" stroke="#D4AF37" stroke-width="4"/>
    <path d="M50 50
             m-30 0
             a30 30 0 1 1 60 0
             a20 20 0 1 0 -40 0
             a10 10 0 1 1 20 0"
          fill="none" stroke="#D4AF37" stroke-width="4"
          transform="scale(1 -1) translate(0 -100)"/>
  </g>
</svg>
